<svg xmlns="http://www.w3.org/2000/svg" width="400" height="480" viewBox="0 0 400 480">
  <rect width="400" height="480" rx="18" fill="#1a237e"/>
  <rect x="30" y="60" width="340" height="340" rx="12" fill="white"/>
  <g transform="translate(40,70) scale(8.6486)">
    <path fill="#ffffff" d="M0 0h37v37H0z"/><path stroke="#000000" d="M4 4.5h7m4 0h1m2 0h1m4 0h1m2 0h7M4 5.5h1m5 0h1m1 0h1m3 0h2m3 0h4m1 0h1m5 0h1M4 6.5h1m1 0h3m1 0h1m2 0h1m5 0h1m2 0h1m1 0h1m1 0h1m1 0h3m1 0h1M4 7.5h1m1 0h3m1 0h1m2 0h5m4 0h2m2 0h1m1 0h3m1 0h1M4 8.5h1m1 0h3m1 0h1m1 0h2m2 0h2m2 0h1m1 0h2m2 0h1m1 0h3m1 0h1M4 9.5h1m5 0h1m2 0h3m2 0h2m1 0h3m2 0h1m5 0h1M4 10.5h7m1 0h1m1 0h1m1 0h1m1 0h1m1 0h1m1 0h1m1 0h1m1 0h7M13 11.5h2m5 0h3M4 12.5h1m1 0h1m1 0h1m1 0h1m3 0h1m1 0h1m2 0h3m6 0h1m2 0h1M4 13.5h2m1 0h3m1 0h1m3 0h3m2 0h2m2 0h4m1 0h1m2 0h1M7 14.5h4m1 0h1m1 0h1m1 0h1m1 0h1m6 0h1m1 0h2m1 0h3M4 15.5h2m1 0h3m1 0h1m3 0h1m1 0h3m1 0h1m1 0h2m2 0h1m3 0h1M5 16.5h4m1 0h1m1 0h1m1 0h1m3 0h4m4 0h1m2 0h1m1 0h2M9 17.5h1m1 0h1m1 0h3m2 0h1m1 0h2m2 0h1m1 0h1m2 0h1m2 0h1M4 18.5h1m2 0h1m2 0h1m3 0h1m2 0h1m2 0h2m4 0h1m2 0h1m1 0h2M6 19.5h2m1 0h1m2 0h1m3 0h1m3 0h2m3 0h2m2 0h1m1 0h1M5 20.5h1m3 0h5m2 0h1m2 0h3m2 0h1m1 0h1m2 0h1m1 0h2M6 21.5h4m3 0h3m1 0h1m6 0h1m1 0h1m2 0h2m1 0h1M4 22.5h1m1 0h1m1 0h3m1 0h3m1 0h1m1 0h1m2 0h1m2 0h1m1 0h3m2 0h2M5 23.5h3m1 0h1m1 0h2m1 0h2m1 0h6m1 0h2m1 0h3m1 0h1M4 24.5h1m3 0h5m1 0h1m3 0h1m1 0h2m1 0h6M12 25.5h1m2 0h2m1 0h1m1 0h5m3 0h1m1 0h3M4 26.5h7m5 0h2m2 0h5m1 0h1m1 0h2m1 0h2M4 27.5h1m5 0h1m3 0h1m4 0h3m1 0h2m3 0h2m2 0h1M4 28.5h1m1 0h3m1 0h1m1 0h1m1 0h2m3 0h3m2 0h5m3 0h1M4 29.5h1m1 0h3m1 0h1m2 0h1m3 0h1m2 0h6m1 0h2m1 0h3M4 30.5h1m1 0h3m1 0h1m1 0h4m2 0h1m2 0h5m1 0h3m2 0h1M4 31.5h1m5 0h1m3 0h2m1 0h3m1 0h2m1 0h2m1 0h2m2 0h1M4 32.5h7m1 0h6m2 0h2m2 0h1m2 0h2m2 0h2"/>
  </g>
  <text x="200" y="38" font-family="Arial,sans-serif" font-size="22" font-weight="bold" fill="white" text-anchor="middle">FIFA World Cup 2026</text>
  <text x="200" y="430" font-family="Arial,sans-serif" font-size="16" fill="#90caf9" text-anchor="middle">fifa-2026.curatedforsale.in</text>
  <text x="200" y="458" font-family="Arial,sans-serif" font-size="13" fill="#7986cb" text-anchor="middle">Schedule - Scores - Standings</text>
</svg>